<svg width="200" height="200" viewBox="0 0 200 200" fill="none" xmlns="http://www.w3.org/2000/svg">
<circle cx="100" cy="100" r="100" fill="url(#paint0_radial_43_39)"/>
<path d="M100 25C141.421 25 175 58.5786 175 100C175 141.421 141.421 175 100 175C58.5786 175 25 141.421 25 100C25 58.5786 58.5786 25 100 25ZM100 50C72.3858 50 50 72.3858 50 100C50 127.614 72.3858 150 100 150C127.614 150 150 127.614 150 100C150 72.3858 127.614 50 100 50Z" fill="white" fill-opacity="0.5"/>
<circle cx="100" cy="99" r="15" fill="white" fill-opacity="0.5"/>
<defs>
<radialGradient id="paint0_radial_43_39" cx="0" cy="0" r="1" gradientUnits="userSpaceOnUse" gradientTransform="translate(100 100) rotate(90) scale(100)">
<stop stop-color="#6687C5" stop-opacity="0.8"/>
<stop offset="1" stop-color="white" stop-opacity="0.5"/>
</radialGradient>
</defs>
</svg>
